Belleza-Regular.otf.ufo
<glyph name="dollar" format="1">
  <advance width="500"/>
  <unicode hex="0024"/>
  <outline>
    <contour>
      <point x="264" y="733" type="line" name="hr00"/>
      <point x="230" y="733" type="line"/>
      <point x="230" y="669" type="line"/>
      <point x="106" y="662" smooth="yes"/>
      <point x="62" y="583" smooth="yes"/>
      <point x="62" y="509" type="curve" smooth="yes"/>
      <point x="62" y="400"/>
      <point x="150" y="349"/>
      <point x="230" y="301" type="curve"/>
      <point x="230" y="29" type="line"/>
      <point x="168" y="29"/>
      <point x="90" y="62"/>
      <point x="58" y="80" type="curve"/>
      <point x="58" y="33" type="line"/>
      <point x="92" y="18"/>
      <point x="159" y="-5"/>
      <point x="230" y="-6" type="curve"/>
      <point x="230" y="-87" type="line"/>
      <point x="264" y="-87" type="line"/>
      <point x="264" y="-4" type="line"/>
      <point x="387" y="6" smooth="yes"/>
      <point x="448" y="82" smooth="yes"/>
      <point x="448" y="178" type="curve" smooth="yes"/>
      <point x="448" y="291"/>
      <point x="348" y="342"/>
      <point x="264" y="397" type="curve"/>
      <point x="264" y="631" type="line"/>
      <point x="324" y="623"/>
      <point x="366" y="603"/>
      <point x="422" y="570" type="curve"/>
      <point x="432" y="636" type="line"/>
      <point x="400" y="649"/>
      <point x="334" y="669"/>
      <point x="264" y="669" type="curve"/>
    </contour>
    <contour>
      <point x="153" y="531" type="curve"/>
      <point x="153" y="567"/>
      <point x="175" y="614"/>
      <point x="230" y="627" type="curve"/>
      <point x="230" y="420" type="line"/>
      <point x="186" y="451" smooth="yes"/>
      <point x="153" y="484" smooth="yes"/>
    </contour>
    <contour>
      <point x="264" y="280" type="line"/>
      <point x="315" y="247" smooth="yes"/>
      <point x="355" y="213" smooth="yes"/>
      <point x="355" y="159" type="curve" smooth="yes"/>
      <point x="355" y="91"/>
      <point x="321" y="47"/>
      <point x="264" y="33" type="curve"/>
    </contour>
  </outline>
</glyph>
<glyph name="percent" format="1">
  <advance width="799"/>
  <unicode hex="0025"/>
  <outline>
    <contour>
      <point x="201" y="684" type="curve"/>
      <point x="133" y="684" smooth="yes"/>
      <point x="40" y="631" smooth="yes"/>
      <point x="40" y="476" type="curve" smooth="yes"/>
      <point x="40" y="357" smooth="yes"/>
      <point x="100" y="291" smooth="yes"/>
      <point x="177" y="291" type="curve" smooth="yes"/>
      <point x="245" y="291" smooth="yes"/>
      <point x="338" y="342" smooth="yes"/>
      <point x="338" y="497" type="curve" smooth="yes"/>
      <point x="338" y="616" smooth="yes"/>
      <point x="277" y="684" smooth="yes"/>
    </contour>
    <contour>
      <point x="187" y="638" type="curve"/>
      <point x="229" y="638" smooth="yes"/>
      <point x="265" y="568" smooth="yes"/>
      <point x="265" y="485" type="curve" smooth="yes"/>
      <point x="265" y="386" smooth="yes"/>
      <point x="238" y="334" smooth="yes"/>
      <point x="187" y="334" type="curve" smooth="yes"/>
      <point x="144" y="334" smooth="yes"/>
      <point x="110" y="402" smooth="yes"/>
      <point x="110" y="485" type="curve" smooth="yes"/>
      <point x="110" y="578" smooth="yes"/>
      <point x="137" y="638" smooth="yes"/>
    </contour>
    <contour>
      <point x="622" y="383" type="curve"/>
      <point x="554" y="383" smooth="yes"/>
      <point x="461" y="330" smooth="yes"/>
      <point x="461" y="175" type="curve" smooth="yes"/>
      <point x="461" y="56" smooth="yes"/>
      <point x="521" y="-10" smooth="yes"/>
      <point x="598" y="-10" type="curve" smooth="yes"/>
      <point x="666" y="-10" smooth="yes"/>
      <point x="759" y="41" smooth="yes"/>
      <point x="759" y="196" type="curve" smooth="yes"/>
      <point x="759" y="315" smooth="yes"/>
      <point x="698" y="383" smooth="yes"/>
    </contour>
    <contour>
      <point x="608" y="337" type="curve"/>
      <point x="650" y="337" smooth="yes"/>
      <point x="686" y="267" smooth="yes"/>
      <point x="686" y="184" type="curve" smooth="yes"/>
      <point x="686" y="85" smooth="yes"/>
      <point x="659" y="33" smooth="yes"/>
      <point x="608" y="33" type="curve" smooth="yes"/>
      <point x="565" y="33" smooth="yes"/>
      <point x="531" y="101" smooth="yes"/>
      <point x="531" y="184" type="curve" smooth="yes"/>
      <point x="531" y="277" smooth="yes"/>
      <point x="558" y="337" smooth="yes"/>
    </contour>
    <contour>
      <point x="249" y="-14" type="line" name="hr01"/>
      <point x="599" y="677" type="line"/>
      <point x="553" y="677" type="line"/>
      <point x="200" y="-14" type="line"/>
    </contour>
  </outline>
</glyph>
<glyph name="ampersand" format="1">
  <advance width="778"/>
  <unicode hex="0026"/>
  <outline>
    <contour>
      <point x="731" y="31" type="line"/>
      <point x="644" y="31"/>
      <point x="565" y="71"/>
      <point x="497" y="130" type="curve"/>
      <point x="548" y="205"/>
      <point x="576" y="289"/>
      <point x="589" y="329" type="curve"/>
      <point x="615" y="330"/>
      <point x="640" y="331"/>
      <point x="658" y="334" type="curve"/>
      <point x="675" y="384" type="line"/>
      <point x="634" y="373"/>
      <point x="563" y="364"/>
      <point x="505" y="362" type="curve"/>
      <point x="505" y="331" type="line"/>
      <point x="516" y="330"/>
      <point x="529" y="330"/>
      <point x="542" y="330" type="curve"/>
      <point x="527" y="282"/>
      <point x="506" y="214"/>
      <point x="470" y="156" type="curve"/>
      <point x="357" y="269" smooth="yes"/>
      <point x="289" y="421" smooth="yes"/>
      <point x="289" y="526" type="curve" smooth="yes"/>
      <point x="289" y="576"/>
      <point x="304" y="615"/>
      <point x="337" y="636" type="curve"/>
      <point x="386" y="636"/>
      <point x="451" y="621"/>
      <point x="495" y="588" type="curve"/>
      <point x="505" y="651" type="line"/>
      <point x="473" y="666" smooth="yes"/>
      <point x="402" y="677" smooth="yes"/>
      <point x="372" y="677" type="curve" smooth="yes"/>
      <point x="224" y="677" smooth="yes"/>
      <point x="208" y="541" smooth="yes"/>
      <point x="208" y="506" type="curve" smooth="yes"/>
      <point x="208" y="460"/>
      <point x="221" y="406"/>
      <point x="246" y="350" type="curve"/>
      <point x="101" y="326" smooth="yes"/>
      <point x="42" y="250" smooth="yes"/>
      <point x="42" y="168" type="curve" smooth="yes"/>
      <point x="42" y="27" smooth="yes"/>
      <point x="168" y="-13" smooth="yes"/>
      <point x="250" y="-13" type="curve" smooth="yes"/>
      <point x="341" y="-13"/>
      <point x="408" y="27"/>
      <point x="458" y="81" type="curve"/>
      <point x="526" y="32"/>
      <point x="604" y="0"/>
      <point x="688" y="0" type="curve" name="hr01"/>
    </contour>
    <contour>
      <point x="279" y="34" type="curve"/>
      <point x="200" y="34" smooth="yes"/>
      <point x="129" y="70" smooth="yes"/>
      <point x="129" y="168" type="curve" smooth="yes"/>
      <point x="129" y="225"/>
      <point x="163" y="291"/>
      <point x="260" y="318" type="curve"/>
      <point x="299" y="240"/>
      <point x="358" y="162"/>
      <point x="431" y="102" type="curve"/>
      <point x="393" y="62" smooth="yes"/>
      <point x="344" y="34" smooth="yes"/>
    </contour>
  </outline>
</glyph>
<glyph name="comma" format="1">
  <advance width="235"/>
  <unicode hex="002C"/>
  <outline>
    <contour>
      <point x="161" y="108" type="curve" name="hr00"/>
      <point x="122" y="104"/>
      <point x="75" y="79"/>
      <point x="56" y="51" type="curve"/>
      <point x="56" y="15"/>
      <point x="90" y="-4"/>
      <point x="118" y="-4" type="curve"/>
      <point x="118" y="-47"/>
      <point x="90" y="-92"/>
      <point x="51" y="-123" type="curve"/>
      <point x="63" y="-142" type="line"/>
      <point x="124" y="-108" smooth="yes"/>
      <point x="175" y="-55" smooth="yes"/>
      <point x="175" y="28" type="curve" smooth="yes"/>
      <point x="175" y="52"/>
      <point x="171" y="79"/>
    </contour>
  </outline>
</glyph>
<glyph name="slash" format="1">
  <advance width="278"/>
  <unicode hex="002F"/>
  <outline>
    <contour>
      <point x="59" y="-14" type="line" name="hr00"/>
      <point x="287" y="677" type="line"/>
      <point x="220" y="677" type="line"/>
      <point x="-9" y="-14" type="line"/>
    </contour>
  </outline>
</glyph>
<glyph name="seven" format="1">
  <advance width="500"/>
  <unicode hex="0037"/>
  <outline>
    <contour>
      <point x="449" y="562" type="line" name="hr00"/>
      <point x="41" y="562" type="line"/>
      <point x="51" y="495" type="line"/>
      <point x="380" y="513" type="line"/>
      <point x="109" y="-75" type="line"/>
      <point x="189" y="-108" type="line"/>
      <point x="449" y="516" type="line"/>
    </contour>
  </outline>
</glyph>
<glyph name="less" format="1">
  <advance width="564"/>
  <unicode hex="003C"/>
  <outline>
    <contour>
      <point x="507" y="22" type="line" name="hr00"/>
      <point x="507" y="82" type="line"/>
      <point x="130" y="253" type="line"/>
      <point x="507" y="424" type="line"/>
      <point x="507" y="484" type="line"/>
      <point x="57" y="280" type="line"/>
      <point x="57" y="226" type="line"/>
    </contour>
  </outline>
</glyph>
<glyph name="A" format="1">
  <advance width="629"/>
  <unicode hex="0041"/>
  <outline>
    <contour>
      <point x="307" y="678" type="line" name="hr00"/>
      <point x="10" y="0" type="line"/>
      <point x="64" y="0" type="line"/>
      <point x="138" y="180" type="line"/>
      <point x="435" y="180" type="line"/>
      <point x="510" y="0" type="line"/>
      <point x="619" y="0" type="line"/>
      <point x="322" y="678" type="line"/>
    </contour>
    <contour>
      <point x="419" y="218" type="line"/>
      <point x="153" y="218" type="line"/>
      <point x="287" y="542" type="line"/>
    </contour>
  </outline>
</glyph>
<glyph name="F" format="1">
  <advance width="481"/>
  <unicode hex="0046"/>
  <outline>
    <contour>
      <point x="481" y="595" type="line" name="hr00"/>
      <point x="481" y="662" type="line"/>
      <point x="90" y="662" type="line"/>
      <point x="90" y="0" type="line"/>
      <point x="187" y="0" type="line"/>
      <point x="187" y="328" type="line"/>
      <point x="399" y="328" type="line"/>
      <point x="399" y="366" type="line"/>
      <point x="187" y="366" type="line"/>
      <point x="187" y="609" type="line"/>
      <point x="225" y="620"/>
      <point x="256" y="626"/>
      <point x="296" y="626" type="curve"/>
    </contour>
  </outline>
</glyph>
<glyph name="M" format="1">
  <advance width="889"/>
  <unicode hex="004D"/>
  <outline>
    <contour>
      <point x="664" y="662" type="line" name="hr00"/>
      <point x="443" y="157" type="line"/>
      <point x="212" y="662" type="line"/>
      <point x="119" y="662" type="line"/>
      <point x="82" y="0" type="line"/>
      <point x="126" y="0" type="line"/>
      <point x="153" y="546" type="line"/>
      <point x="157" y="546" type="line"/>
      <point x="404" y="0" type="line"/>
      <point x="418" y="0" type="line"/>
      <point x="670" y="569" type="line"/>
      <point x="674" y="569" type="line"/>
      <point x="701" y="0" type="line"/>
      <point x="803" y="0" type="line"/>
      <point x="766" y="662" type="line"/>
    </contour>
  </outline>
</glyph>
<glyph name="O" format="1">
  <advance width="725"/>
  <unicode hex="004F"/>
  <outline>
    <contour>
      <point x="391" y="674" type="curve" name="hr00"/>
      <point x="239" y="674" smooth="yes"/>
      <point x="34" y="587" smooth="yes"/>
      <point x="34" y="313" type="curve" smooth="yes"/>
      <point x="34" y="103" smooth="yes"/>
      <point x="167" y="-12" smooth="yes"/>
      <point x="333" y="-12" type="curve" smooth="yes"/>
      <point x="485" y="-12" smooth="yes"/>
      <point x="691" y="77" smooth="yes"/>
      <point x="691" y="351" type="curve" smooth="yes"/>
      <point x="691" y="561" smooth="yes"/>
      <point x="558" y="674" smooth="yes"/>
    </contour>
    <contour>
      <point x="362" y="21" type="curve"/>
      <point x="202" y="21" smooth="yes"/>
      <point x="140" y="165" smooth="yes"/>
      <point x="140" y="328" type="curve" smooth="yes"/>
      <point x="140" y="460"/>
      <point x="202" y="586"/>
      <point x="337" y="633" type="curve"/>
      <point x="525" y="633" smooth="yes"/>
      <point x="585" y="494" smooth="yes"/>
      <point x="585" y="328" type="curve" smooth="yes"/>
      <point x="585" y="196" smooth="yes"/>
      <point x="522" y="21" smooth="yes"/>
    </contour>
  </outline>
</glyph>
<glyph name="S" format="1">
  <advance width="556"/>
  <unicode hex="0053"/>
  <outline>
    <contour>
      <point x="214" y="633" type="curve" name="hr00"/>
      <point x="292" y="633"/>
      <point x="368" y="608"/>
      <point x="445" y="575" type="curve"/>
      <point x="455" y="643" type="line"/>
      <point x="408" y="657"/>
      <point x="337" y="674"/>
      <point x="283" y="674" type="curve"/>
      <point x="133" y="674" smooth="yes"/>
      <point x="74" y="583" smooth="yes"/>
      <point x="74" y="506" type="curve" smooth="yes"/>
      <point x="74" y="316" smooth="yes"/>
      <point x="394" y="310" smooth="yes"/>
      <point x="394" y="155" type="curve" smooth="yes"/>
      <point x="394" y="71" smooth="yes"/>
      <point x="335" y="23" smooth="yes"/>
      <point x="247" y="23" type="curve" smooth="yes"/>
      <point x="180" y="23"/>
      <point x="103" y="57"/>
      <point x="69" y="74" type="curve"/>
      <point x="69" y="27" type="line"/>
      <point x="108" y="12" smooth="yes"/>
      <point x="183" y="-12" smooth="yes"/>
      <point x="262" y="-12" type="curve" smooth="yes"/>
      <point x="419" y="-12" smooth="yes"/>
      <point x="497" y="69" smooth="yes"/>
      <point x="497" y="174" type="curve" smooth="yes"/>
      <point x="497" y="363" smooth="yes"/>
      <point x="162" y="386" smooth="yes"/>
      <point x="162" y="547" type="curve" smooth="yes"/>
      <point x="162" y="583"/>
      <point x="175" y="614"/>
    </contour>
  </outline>
</glyph>
<glyph name="T" format="1">
  <advance width="535"/>
  <unicode hex="0054"/>
  <outline>
    <contour>
      <point x="525" y="662" type="line" name="hr00"/>
      <point x="10" y="662" type="line"/>
      <point x="16" y="591" type="line"/>
      <point x="151" y="622" type="line"/>
      <point x="178" y="622"/>
      <point x="198" y="619"/>
      <point x="219" y="614" type="curve"/>
      <point x="219" y="0" type="line"/>
      <point x="316" y="0" type="line"/>
      <point x="316" y="614" type="line"/>
      <point x="337" y="619"/>
      <point x="357" y="622"/>
      <point x="384" y="622" type="curve"/>
      <point x="520" y="591" type="line"/>
    </contour>
  </outline>
</glyph>
<glyph name="V" format="1">
  <advance width="597"/>
  <unicode hex="0056"/>
  <outline>
    <contour>
      <point x="10" y="662" type="line" name="hr00"/>
      <point x="307" y="-16" type="line"/>
      <point x="323" y="-16" type="line"/>
      <point x="587" y="662" type="line"/>
      <point x="537" y="662" type="line"/>
      <point x="339" y="120" type="line"/>
      <point x="119" y="662" type="line"/>
    </contour>
  </outline>
</glyph>
<glyph name="b" format="1">
  <advance width="500"/>
  <unicode hex="0062"/>
  <outline>
    <contour>
      <point x="153" y="683" type="line" name="hr00"/>
      <point x="69" y="683" type="line"/>
      <point x="69" y="26" type="line"/>
      <point x="118" y="-1" smooth="yes"/>
      <point x="169" y="-13" smooth="yes"/>
      <point x="218" y="-13" type="curve" smooth="yes"/>
      <point x="352" y="-13" smooth="yes"/>
      <point x="467" y="81" smooth="yes"/>
      <point x="467" y="229" type="curve" smooth="yes"/>
      <point x="467" y="385" smooth="yes"/>
      <point x="387" y="462" smooth="yes"/>
      <point x="299" y="462" type="curve" smooth="yes"/>
      <point x="249" y="462"/>
      <point x="196" y="438"/>
      <point x="153" y="389" type="curve"/>
    </contour>
    <contour>
      <point x="265" y="409" type="curve"/>
      <point x="324" y="390" smooth="yes"/>
      <point x="381" y="332" smooth="yes"/>
      <point x="381" y="218" type="curve" smooth="yes"/>
      <point x="381" y="115" smooth="yes"/>
      <point x="337" y="29" smooth="yes"/>
      <point x="253" y="29" type="curve" smooth="yes"/>
      <point x="211" y="29"/>
      <point x="170" y="47"/>
      <point x="153" y="56" type="curve"/>
      <point x="153" y="342" type="line" smooth="yes"/>
      <point x="153" y="352"/>
      <point x="205" y="404"/>
    </contour>
  </outline>
</glyph>
<glyph name="l" format="1">
  <advance width="234"/>
  <unicode hex="006C"/>
  <outline>
    <contour>
      <point x="159" y="0" type="line" name="hr00"/>
      <point x="159" y="683" type="line"/>
      <point x="75" y="683" type="line"/>
      <point x="75" y="0" type="line"/>
    </contour>
  </outline>
</glyph>
<glyph name="p" format="1">
  <advance width="500"/>
  <unicode hex="0070"/>
  <outline>
    <contour>
      <point x="306" y="464" type="curve" name="hr00"/>
      <point x="247" y="464"/>
      <point x="209" y="434"/>
      <point x="160" y="388" type="curve"/>
      <point x="75" y="464" type="line"/>
      <point x="23" y="426" type="line"/>
      <point x="40" y="413" smooth="yes"/>
      <point x="75" y="386" smooth="yes"/>
      <point x="75" y="317" type="curve" smooth="yes"/>
      <point x="75" y="-212" type="line"/>
      <point x="160" y="-212" type="line"/>
      <point x="160" y="30" type="line"/>
      <point x="210" y="-4" smooth="yes"/>
      <point x="255" y="-17" smooth="yes"/>
      <point x="294" y="-17" type="curve" smooth="yes"/>
      <point x="413" y="-17" smooth="yes"/>
      <point x="476" y="120" smooth="yes"/>
      <point x="476" y="219" type="curve" smooth="yes"/>
      <point x="476" y="420" smooth="yes"/>
      <point x="366" y="464" smooth="yes"/>
    </contour>
    <contour>
      <point x="296" y="417" type="curve"/>
      <point x="345" y="401" smooth="yes"/>
      <point x="385" y="321" smooth="yes"/>
      <point x="385" y="207" type="curve" smooth="yes"/>
      <point x="385" y="104" smooth="yes"/>
      <point x="341" y="32" smooth="yes"/>
      <point x="267" y="31" type="curve" smooth="yes"/>
      <point x="236" y="31"/>
      <point x="200" y="40"/>
      <point x="160" y="59" type="curve"/>
      <point x="160" y="327" type="line" smooth="yes"/>
      <point x="160" y="337"/>
      <point x="218" y="408"/>
    </contour>
  </outline>
</glyph>
<glyph name="r" format="1">
  <advance width="318"/>
  <unicode hex="0072"/>
  <outline>
    <contour>
      <point x="298" y="472" type="line" name="hr00"/>
      <point x="233" y="462"/>
      <point x="170" y="411"/>
      <point x="145" y="368" type="curve"/>
      <point x="122" y="452" type="line"/>
      <point x="64" y="452" type="line"/>
      <point x="64" y="0" type="line"/>
      <point x="148" y="0" type="line"/>
      <point x="148" y="329" type="line"/>
      <point x="185" y="364"/>
      <point x="256" y="403"/>
      <point x="308" y="403" type="curve"/>
    </contour>
  </outline>
</glyph>
<glyph name="s" format="1">
  <advance width="372"/>
  <unicode hex="0073"/>
  <outline>
    <contour>
      <point x="169" y="422" type="curve" name="hr00"/>
      <point x="202" y="417"/>
      <point x="253" y="401"/>
      <point x="306" y="372" type="curve"/>
      <point x="316" y="438" type="line"/>
      <point x="293" y="447" smooth="yes"/>
      <point x="248" y="464" smooth="yes"/>
      <point x="177" y="464" type="curve" smooth="yes"/>
      <point x="73" y="464" smooth="yes"/>
      <point x="37" y="398" smooth="yes"/>
      <point x="37" y="344" type="curve" smooth="yes"/>
      <point x="37" y="206" smooth="yes"/>
      <point x="256" y="202" smooth="yes"/>
      <point x="256" y="101" type="curve" smooth="yes"/>
      <point x="256" y="67" smooth="yes"/>
      <point x="228" y="28" smooth="yes"/>
      <point x="157" y="28" type="curve" smooth="yes"/>
      <point x="111" y="28"/>
      <point x="52" y="50"/>
      <point x="28" y="62" type="curve"/>
      <point x="28" y="24" type="line"/>
      <point x="53" y="10" smooth="yes"/>
      <point x="109" y="-12" smooth="yes"/>
      <point x="168" y="-12" type="curve" smooth="yes"/>
      <point x="277" y="-12" smooth="yes"/>
      <point x="337" y="47" smooth="yes"/>
      <point x="337" y="119" type="curve" smooth="yes"/>
      <point x="337" y="254" smooth="yes"/>
      <point x="110" y="263" smooth="yes"/>
      <point x="110" y="360" type="curve" smooth="yes"/>
      <point x="110" y="389"/>
      <point x="133" y="422"/>
    </contour>
  </outline>
</glyph>
<glyph name="asciitilde" format="1">
  <advance width="541"/>
  <unicode hex="007E"/>
  <outline>
    <contour>
      <point x="466" y="323" type="line"/>
      <point x="443" y="288" smooth="yes"/>
      <point x="418" y="251" smooth="yes"/>
      <point x="378" y="251" type="curve" smooth="yes"/>
      <point x="351" y="251" smooth="yes"/>
      <point x="313" y="271" smooth="yes"/>
      <point x="276" y="287" type="curve" smooth="yes"/>
      <point x="238" y="304" smooth="yes"/>
      <point x="199" y="319" smooth="yes"/>
      <point x="165" y="319" type="curve" smooth="yes" name="hr01"/>
      <point x="98" y="319"/>
      <point x="62" y="275"/>
      <point x="40" y="233" type="curve"/>
      <point x="76" y="183" type="line"/>
      <point x="92" y="218" smooth="yes"/>
      <point x="116" y="255" smooth="yes"/>
      <point x="160" y="255" type="curve" smooth="yes"/>
      <point x="206" y="255" smooth="yes"/>
      <point x="243" y="238" smooth="yes"/>
      <point x="275" y="220" type="curve" smooth="yes"/>
      <point x="308" y="202" smooth="yes"/>
      <point x="340" y="187" smooth="yes"/>
      <point x="377" y="187" type="curve" smooth="yes" name="hr02"/>
      <point x="439" y="187"/>
      <point x="472" y="231"/>
      <point x="502" y="273" type="curve"/>
    </contour>
  </outline>
</glyph>
<glyph name="sterling" format="1">
  <advance width="500"/>
  <unicode hex="00A3"/>
  <outline>
    <contour>
      <point x="26" y="368" type="line"/>
      <point x="26" y="330" type="line"/>
      <point x="105" y="330" type="line"/>
      <point x="108" y="302" smooth="yes"/>
      <point x="111" y="274" smooth="yes"/>
      <point x="111" y="247" type="curve" smooth="yes"/>
      <point x="111" y="173"/>
      <point x="99" y="95"/>
      <point x="56" y="27" type="curve"/>
      <point x="56" y="0" type="line"/>
      <point x="416" y="0" type="line"/>
      <point x="428" y="67" type="line"/>
      <point x="202" y="36" type="line"/>
      <point x="171" y="37"/>
      <point x="139" y="40"/>
      <point x="109" y="47" type="curve"/>
      <point x="155" y="121"/>
      <point x="181" y="226"/>
      <point x="186" y="330" type="curve"/>
      <point x="329" y="330" type="line"/>
      <point x="329" y="368" type="line"/>
      <point x="188" y="368" type="line"/>
      <point x="188" y="372" type="line" smooth="yes"/>
      <point x="188" y="429" smooth="yes"/>
      <point x="179" y="482" smooth="yes"/>
      <point x="179" y="526" type="curve" smooth="yes"/>
      <point x="179" y="583"/>
      <point x="192" y="625"/>
      <point x="244" y="644" type="curve"/>
      <point x="287" y="638"/>
      <point x="346" y="613"/>
      <point x="402" y="583" type="curve"/>
      <point x="412" y="649" type="line"/>
      <point x="380" y="662" smooth="yes"/>
      <point x="332" y="680" smooth="yes"/>
      <point x="279" y="680" type="curve" smooth="yes"/>
      <point x="172" y="680" smooth="yes"/>
      <point x="92" y="595" smooth="yes"/>
      <point x="92" y="469" type="curve" smooth="yes" name="hr01"/>
      <point x="92" y="438"/>
      <point x="96" y="404"/>
      <point x="100" y="368" type="curve"/>
    </contour>
  </outline>
</glyph>
<glyph name="brokenbar" format="1">
  <advance width="200"/>
  <unicode hex="00A6"/>
  <outline>
    <contour>
      <point x="133" y="707" type="line" name="hr00"/>
      <point x="67" y="707" type="line"/>
      <point x="67" y="357" type="line"/>
      <point x="133" y="357" type="line"/>
    </contour>
    <contour>
      <point x="133" y="207" type="line"/>
      <point x="67" y="207" type="line"/>
      <point x="67" y="-143" type="line"/>
      <point x="133" y="-143" type="line"/>
    </contour>
  </outline>
</glyph>
<glyph name="logicalnot" format="1">
  <advance width="564"/>
  <unicode hex="00AC"/>
  <outline>
    <contour>
      <point x="447" y="312" type="line" name="hr00"/>
      <point x="447" y="124" type="line"/>
      <point x="505" y="124" type="line"/>
      <point x="505" y="370" type="line"/>
      <point x="59" y="370" type="line"/>
      <point x="59" y="312" type="line"/>
    </contour>
  </outline>
</glyph>
<glyph name="onequarter" format="1">
  <advance width="799"/>
  <unicode hex="00BC"/>
  <outline>
    <contour>
      <point x="78" y="567" type="line" name="hr00"/>
      <point x="159" y="608" type="line"/>
      <point x="159" y="301" type="line"/>
      <point x="227" y="301" type="line"/>
      <point x="227" y="687" type="line"/>
      <point x="218" y="687" type="line"/>
      <point x="49" y="615" type="line"/>
    </contour>
    <contour>
      <point x="757" y="76" type="line"/>
      <point x="757" y="120" type="line"/>
      <point x="704" y="120" type="line"/>
      <point x="704" y="378" type="line"/>
      <point x="640" y="378" type="line"/>
      <point x="454" y="102" type="line"/>
      <point x="454" y="76" type="line"/>
      <point x="637" y="76" type="line"/>
      <point x="637" y="0" type="line"/>
      <point x="704" y="0" type="line"/>
      <point x="704" y="76" type="line"/>
    </contour>
    <contour>
      <point x="637" y="120" type="line"/>
      <point x="510" y="120" type="line"/>
      <point x="637" y="313" type="line"/>
    </contour>
    <contour>
      <point x="249" y="-14" type="line"/>
      <point x="599" y="677" type="line"/>
      <point x="553" y="677" type="line"/>
      <point x="200" y="-14" type="line"/>
    </contour>
  </outline>
</glyph>
<glyph name="AE" format="1">
  <advance width="862"/>
  <unicode hex="00C6"/>
  <outline>
    <contour>
      <point x="472" y="36" type="line" name="hr00"/>
      <point x="472" y="328" type="line"/>
      <point x="709" y="328" type="line"/>
      <point x="709" y="366" type="line"/>
      <point x="472" y="366" type="line"/>
      <point x="472" y="608" type="line"/>
      <point x="510" y="619"/>
      <point x="541" y="625"/>
      <point x="580" y="625" type="curve"/>
      <point x="791" y="594" type="line"/>
      <point x="791" y="661" type="line"/>
      <point x="375" y="661" type="line"/>
      <point x="10" y="0" type="line"/>
      <point x="64" y="0" type="line"/>
      <point x="158" y="180" type="line"/>
      <point x="375" y="180" type="line"/>
      <point x="375" y="0" type="line"/>
      <point x="797" y="0" type="line"/>
      <point x="797" y="67" type="line"/>
    </contour>
    <contour>
      <point x="375" y="593" type="line"/>
      <point x="375" y="218" type="line"/>
      <point x="178" y="218" type="line"/>
    </contour>
  </outline>
</glyph>
<glyph name="eth" format="1">
  <advance width="500"/>
  <unicode hex="00F0"/>
  <outline>
    <contour>
      <point x="418" y="658" type="line" name="hr00"/>
      <point x="374" y="681" type="line"/>
      <point x="282" y="630" type="line"/>
      <point x="242" y="656"/>
      <point x="196" y="674"/>
      <point x="144" y="683" type="curve"/>
      <point x="132" y="653" type="line"/>
      <point x="172" y="644"/>
      <point x="208" y="629"/>
      <point x="240" y="607" type="curve"/>
      <point x="147" y="557" type="line"/>
      <point x="191" y="535" type="line"/>
      <point x="274" y="580" type="line"/>
      <point x="321" y="535"/>
      <point x="354" y="475"/>
      <point x="366" y="405" type="curve"/>
      <point x="362" y="402" type="line"/>
      <point x="341" y="429" smooth="yes"/>
      <point x="305" y="464" smooth="yes"/>
      <point x="238" y="464" type="curve" smooth="yes"/>
      <point x="170" y="464" smooth="yes"/>
      <point x="27" y="402" smooth="yes"/>
      <point x="27" y="213" type="curve" smooth="yes"/>
      <point x="27" y="68" smooth="yes"/>
      <point x="117" y="-12" smooth="yes"/>
      <point x="229" y="-12" type="curve" smooth="yes"/>
      <point x="342" y="-12" smooth="yes"/>
      <point x="471" y="60" smooth="yes"/>
      <point x="471" y="249" type="curve" smooth="yes"/>
      <point x="471" y="386"/>
      <point x="420" y="520"/>
      <point x="319" y="604" type="curve"/>
    </contour>
    <contour>
      <point x="248" y="22" type="curve"/>
      <point x="154" y="22" smooth="yes"/>
      <point x="118" y="117" smooth="yes"/>
      <point x="118" y="224" type="curve" smooth="yes"/>
      <point x="118" y="311"/>
      <point x="154" y="395"/>
      <point x="234" y="426" type="curve"/>
      <point x="344" y="426" smooth="yes"/>
      <point x="379" y="333" smooth="yes"/>
      <point x="379" y="224" type="curve" smooth="yes"/>
      <point x="379" y="137" smooth="yes"/>
      <point x="342" y="22" smooth="yes"/>
    </contour>
  </outline>
</glyph>
<glyph name="dotlessi" format="1">
  <advance width="233"/>
  <unicode hex="0131"/>
  <outline>
    <contour>
      <point x="75" y="452" type="line" name="hr00"/>
      <point x="75" y="0" type="line"/>
      <point x="158" y="0" type="line"/>
      <point x="158" y="452" type="line"/>
    </contour>
  </outline>
</glyph>
<glyph name="Eng" format="1">
  <advance width="684"/>
  <unicode hex="014A"/>
  <outline>
    <contour>
      <point x="593" y="662" type="line"/>
      <point x="549" y="662" type="line"/>
      <point x="549" y="131" type="line"/>
      <point x="545" y="131" type="line"/>
      <point x="164" y="662" type="line"/>
      <point x="90" y="662" type="line"/>
      <point x="90" y="0" type="line"/>
      <point x="134" y="0" type="line"/>
      <point x="134" y="537" type="line"/>
      <point x="138" y="537" type="line"/>
      <point x="509" y="23" type="line" name="hr01"/>
      <point x="509" y="17" type="line" smooth="yes"/>
      <point x="509" y="-36"/>
      <point x="494" y="-150"/>
      <point x="443" y="-176" type="curve"/>
      <point x="420" y="-176"/>
      <point x="365" y="-162"/>
      <point x="334" y="-146" type="curve"/>
      <point x="324" y="-211" type="line"/>
      <point x="348" y="-217" smooth="yes"/>
      <point x="376" y="-223" smooth="yes"/>
      <point x="400" y="-223" type="curve" smooth="yes"/>
      <point x="518" y="-223" smooth="yes"/>
      <point x="593" y="-119" smooth="yes"/>
      <point x="593" y="17" type="curve" smooth="yes"/>
    </contour>
  </outline>
</glyph>
<glyph name="ogonek" format="1">
  <advance width="333"/>
  <unicode hex="02DB"/>
  <outline>
    <contour>
      <point x="118" y="0" type="line" name="hr00"/>
      <point x="87" y="-20" smooth="yes"/>
      <point x="62" y="-54" smooth="yes"/>
      <point x="62" y="-97" type="curve" smooth="yes"/>
      <point x="62" y="-135" smooth="yes"/>
      <point x="97" y="-165" smooth="yes"/>
      <point x="141" y="-165" type="curve" smooth="yes"/>
      <point x="185" y="-165"/>
      <point x="230" y="-127"/>
      <point x="243" y="-80" type="curve"/>
      <point x="227" y="-73" type="line"/>
      <point x="216" y="-97" smooth="yes"/>
      <point x="186" y="-116" smooth="yes"/>
      <point x="161" y="-116" type="curve" smooth="yes"/>
      <point x="136" y="-116" smooth="yes"/>
      <point x="116" y="-103" smooth="yes"/>
      <point x="116" y="-75" type="curve" smooth="yes"/>
      <point x="116" y="-41"/>
      <point x="138" y="-19"/>
      <point x="162" y="0" type="curve"/>
    </contour>
  </outline>
</glyph>
<glyph name="pi" format="1">
  <advance width="515"/>
  <unicode hex="03C0"/>
  <outline>
    <contour>
      <point x="89" y="0" type="line" name="hr00"/>
      <point x="174" y="0" type="line"/>
      <point x="174" y="398" type="line"/>
      <point x="340" y="398" type="line"/>
      <point x="340" y="152" type="line" smooth="yes"/>
      <point x="340" y="37"/>
      <point x="398" y="6"/>
      <point x="425" y="-9" type="curve"/>
      <point x="476" y="29" type="line"/>
      <point x="460" y="42" smooth="yes"/>
      <point x="425" y="69" smooth="yes"/>
      <point x="425" y="138" type="curve" smooth="yes"/>
      <point x="425" y="398" type="line"/>
      <point x="475" y="398" type="line"/>
      <point x="475" y="452" type="line"/>
      <point x="39" y="452" type="line"/>
      <point x="39" y="398" type="line"/>
      <point x="89" y="398" type="line"/>
    </contour>
  </outline>
</glyph>
<glyph name="dagger" format="1">
  <advance width="500"/>
  <unicode hex="2020"/>
  <outline>
    <contour>
      <point x="442" y="415" type="line"/>
      <point x="442" y="481" type="line"/>
      <point x="384" y="481" type="line"/>
      <point x="265" y="461" type="line"/>
      <point x="294" y="597" type="line" name="hr01"/>
      <point x="294" y="677" type="line"/>
      <point x="279" y="681" smooth="yes"/>
      <point x="266" y="682" smooth="yes"/>
      <point x="253" y="682" type="curve" smooth="yes"/>
      <point x="240" y="682"/>
      <point x="226" y="681"/>
      <point x="208" y="677" type="curve"/>
      <point x="208" y="597" type="line"/>
      <point x="236" y="461" type="line"/>
      <point x="117" y="481" type="line"/>
      <point x="59" y="481" type="line"/>
      <point x="59" y="415" type="line"/>
      <point x="117" y="415" type="line"/>
      <point x="239" y="435" type="line"/>
      <point x="209" y="317" type="line"/>
      <point x="241" y="-149" type="line"/>
      <point x="262" y="-149" type="line"/>
      <point x="292" y="317" type="line"/>
      <point x="261" y="435" type="line"/>
      <point x="384" y="415" type="line"/>
    </contour>
  </outline>
</glyph>
<glyph name="bullet" format="1">
  <advance width="350"/>
  <unicode hex="2022"/>
  <outline>
    <contour>
      <point x="310" y="331" type="curve" name="hr00"/>
      <point x="310" y="406" smooth="yes"/>
      <point x="250" y="466" smooth="yes"/>
      <point x="175" y="466" type="curve" smooth="yes"/>
      <point x="100" y="466" smooth="yes"/>
      <point x="40" y="407" smooth="yes"/>
      <point x="40" y="333" type="curve" smooth="yes"/>
      <point x="40" y="256" smooth="yes"/>
      <point x="100" y="196" smooth="yes"/>
      <point x="175" y="196" type="curve" smooth="yes"/>
      <point x="250" y="196" smooth="yes"/>
      <point x="310" y="257" smooth="yes"/>
    </contour>
  </outline>
</glyph>
<glyph name="Euro" format="1">
  <advance width="500"/>
  <unicode hex="20AC"/>
  <outline>
    <contour>
      <point x="18" y="273" type="line" name="hr00"/>
      <point x="18" y="234" type="line"/>
      <point x="77" y="234" type="line"/>
      <point x="109" y="57" smooth="yes"/>
      <point x="232" y="-13" smooth="yes"/>
      <point x="340" y="-13" type="curve" smooth="yes"/>
      <point x="379" y="-13"/>
      <point x="438" y="-3"/>
      <point x="482" y="20" type="curve"/>
      <point x="482" y="75" type="line"/>
      <point x="453" y="39" smooth="yes"/>
      <point x="400" y="21" smooth="yes"/>
      <point x="353" y="21" type="curve" smooth="yes"/>
      <point x="269" y="21"/>
      <point x="196" y="80"/>
      <point x="171" y="234" type="curve"/>
      <point x="381" y="234" type="line"/>
      <point x="381" y="273" type="line"/>
      <point x="166" y="273" type="line"/>
      <point x="164" y="297" smooth="yes"/>
      <point x="163" y="323" smooth="yes"/>
      <point x="163" y="352" type="curve" smooth="yes"/>
      <point x="163" y="360" type="line"/>
      <point x="381" y="360" type="line"/>
      <point x="381" y="398" type="line"/>
      <point x="165" y="398" type="line"/>
      <point x="177" y="529"/>
      <point x="242" y="612"/>
      <point x="311" y="636" type="curve"/>
      <point x="334" y="636"/>
      <point x="378" y="624"/>
      <point x="460" y="581" type="curve"/>
      <point x="470" y="647" type="line"/>
      <point x="443" y="664" smooth="yes"/>
      <point x="391" y="677" smooth="yes"/>
      <point x="352" y="677" type="curve" smooth="yes"/>
      <point x="260" y="677"/>
      <point x="104" y="602"/>
      <point x="75" y="398" type="curve"/>
      <point x="18" y="398" type="line"/>
      <point x="18" y="360" type="line"/>
      <point x="71" y="360" type="line"/>
      <point x="71" y="349" smooth="yes"/>
      <point x="70" y="337" smooth="yes"/>
      <point x="70" y="326" type="curve" smooth="yes"/>
      <point x="70" y="307"/>
      <point x="71" y="290"/>
      <point x="72" y="273" type="curve"/>
    </contour>
  </outline>
</glyph>
<glyph name="uni2113" format="1">
  <advance width="309"/>
  <unicode hex="2113"/>
  <outline>
    <contour>
      <point x="188" y="-12" type="curve" name="hr00"/>
      <point x="222" y="-12"/>
      <point x="258" y="9"/>
      <point x="284" y="43" type="curve"/>
      <point x="272" y="69" type="line"/>
      <point x="250" y="51" smooth="yes"/>
      <point x="228" y="41" smooth="yes"/>
      <point x="211" y="41" type="curve" smooth="yes"/>
      <point x="187" y="41" smooth="yes"/>
      <point x="175" y="57" smooth="yes"/>
      <point x="175" y="88" type="curve" smooth="yes"/>
      <point x="175" y="674" type="line"/>
      <point x="91" y="662" type="line"/>
      <point x="91" y="93" type="line" smooth="yes"/>
      <point x="91" y="25" smooth="yes"/>
      <point x="125" y="-12" smooth="yes"/>
    </contour>
  </outline>
</glyph>
<glyph name="Omega" format="1">
  <advance width="725"/>
  <unicode hex="2126"/>
  <outline>
    <contour>
      <point x="459" y="0" type="line" name="hr00"/>
      <point x="651" y="0" type="line"/>
      <point x="651" y="64" type="line"/>
      <point x="516" y="51" type="line"/>
      <point x="516" y="123" type="line"/>
      <point x="596" y="168" smooth="yes"/>
      <point x="661" y="247" smooth="yes"/>
      <point x="661" y="389" type="curve" smooth="yes"/>
      <point x="661" y="575" smooth="yes"/>
      <point x="540" y="674" smooth="yes"/>
      <point x="389" y="674" type="curve" smooth="yes"/>
      <point x="250" y="674" smooth="yes"/>
      <point x="64" y="597" smooth="yes"/>
      <point x="64" y="355" type="curve" smooth="yes"/>
      <point x="64" y="225"/>
      <point x="123" y="142"/>
      <point x="210" y="103" type="curve"/>
      <point x="210" y="51" type="line"/>
      <point x="75" y="64" type="line"/>
      <point x="75" y="0" type="line"/>
      <point x="267" y="0" type="line"/>
      <point x="267" y="126" type="line"/>
      <point x="198" y="170" smooth="yes"/>
      <point x="170" y="265" smooth="yes"/>
      <point x="170" y="368" type="curve" smooth="yes"/>
      <point x="170" y="483" smooth="yes"/>
      <point x="225" y="633" smooth="yes"/>
      <point x="363" y="633" type="curve" smooth="yes"/>
      <point x="501" y="633" smooth="yes"/>
      <point x="555" y="510" smooth="yes"/>
      <point x="555" y="368" type="curve" smooth="yes"/>
      <point x="555" y="285"/>
      <point x="526" y="182"/>
      <point x="459" y="131" type="curve"/>
    </contour>
  </outline>
</glyph>
<glyph name="partialdiff" format="1">
  <advance width="500"/>
  <unicode hex="2202"/>
  <outline>
    <contour>
      <point x="297" y="464" type="curve" name="hr00"/>
      <point x="192" y="464" smooth="yes"/>
      <point x="17" y="392" smooth="yes"/>
      <point x="17" y="168" type="curve" smooth="yes"/>
      <point x="17" y="51" smooth="yes"/>
      <point x="91" y="-12" smooth="yes"/>
      <point x="191" y="-12" type="curve" smooth="yes"/>
      <point x="296" y="-12" smooth="yes"/>
      <point x="471" y="60" smooth="yes"/>
      <point x="471" y="284" type="curve" smooth="yes"/>
      <point x="471" y="442" smooth="yes"/>
      <point x="378" y="677" smooth="yes"/>
      <point x="194" y="677" type="curve" smooth="yes"/>
      <point x="152" y="677"/>
      <point x="90" y="663"/>
      <point x="62" y="654" type="curve"/>
      <point x="82" y="590" type="line"/>
      <point x="139" y="608"/>
      <point x="183" y="622"/>
      <point x="236" y="622" type="curve"/>
      <point x="291" y="601"/>
      <point x="335" y="537"/>
      <point x="360" y="454" type="curve"/>
      <point x="340" y="460" smooth="yes"/>
      <point x="319" y="464" smooth="yes"/>
    </contour>
    <contour>
      <point x="215" y="22" type="curve"/>
      <point x="138" y="22" smooth="yes"/>
      <point x="109" y="85" smooth="yes"/>
      <point x="109" y="167" type="curve" smooth="yes"/>
      <point x="109" y="272"/>
      <point x="153" y="387"/>
      <point x="258" y="426" type="curve"/>
      <point x="347" y="426" smooth="yes"/>
      <point x="379" y="364" smooth="yes"/>
      <point x="379" y="283" type="curve" smooth="yes"/>
      <point x="379" y="201" smooth="yes"/>
      <point x="337" y="22" smooth="yes"/>
    </contour>
  </outline>
</glyph>
<glyph name="Delta" format="1">
  <advance width="629"/>
  <unicode hex="2206"/>
  <outline>
    <contour>
      <point x="40" y="0" type="line" name="hr00"/>
      <point x="589" y="0" type="line"/>
      <point x="322" y="678" type="line"/>
      <point x="307" y="678" type="line"/>
    </contour>
    <contour>
      <point x="115" y="54" type="line"/>
      <point x="287" y="502" type="line"/>
      <point x="459" y="54" type="line"/>
    </contour>
  </outline>
</glyph>
<glyph name="minus" format="1">
  <advance width="564"/>
  <unicode hex="2212"/>
  <outline>
    <contour>
      <point x="59" y="224" type="line" name="hr00"/>
      <point x="505" y="224" type="line"/>
      <point x="505" y="282" type="line"/>
      <point x="59" y="282" type="line"/>
    </contour>
  </outline>
</glyph>
<glyph name="approxequal" format="1">
  <advance width="564"/>
  <unicode hex="2248"/>
  <outline>
    <contour>
      <point x="505" y="371" type="line"/>
      <point x="470" y="387" smooth="yes"/>
      <point x="433" y="395" smooth="yes"/>
      <point x="395" y="395" type="curve" smooth="yes"/>
      <point x="312" y="395" smooth="yes"/>
      <point x="236" y="344" smooth="yes"/>
      <point x="160" y="344" type="curve" smooth="yes" name="hr01"/>
      <point x="124" y="344"/>
      <point x="89" y="352"/>
      <point x="59" y="371" type="curve"/>
      <point x="59" y="312" type="line"/>
      <point x="90" y="292" smooth="yes"/>
      <point x="126" y="284" smooth="yes"/>
      <point x="162" y="284" type="curve" smooth="yes"/>
      <point x="247" y="284" smooth="yes"/>
      <point x="323" y="336" smooth="yes"/>
      <point x="398" y="336" type="curve" smooth="yes" name="hr02"/>
      <point x="436" y="336"/>
      <point x="472" y="328"/>
      <point x="505" y="312" type="curve"/>
    </contour>
    <contour>
      <point x="505" y="194" type="line"/>
      <point x="471" y="212" smooth="yes"/>
      <point x="432" y="221" smooth="yes"/>
      <point x="393" y="221" type="curve" smooth="yes"/>
      <point x="311" y="221" smooth="yes"/>
      <point x="237" y="166" smooth="yes"/>
      <point x="160" y="166" type="curve" smooth="yes" name="hr03"/>
      <point x="124" y="166"/>
      <point x="89" y="175"/>
      <point x="59" y="194" type="curve"/>
      <point x="59" y="135" type="line"/>
      <point x="90" y="115" smooth="yes"/>
      <point x="126" y="107" smooth="yes"/>
      <point x="162" y="107" type="curve" smooth="yes"/>
      <point x="249" y="107" smooth="yes"/>
      <point x="322" y="162" smooth="yes"/>
      <point x="398" y="162" type="curve" smooth="yes" name="hr04"/>
      <point x="436" y="162"/>
      <point x="473" y="153"/>
      <point x="505" y="135" type="curve"/>
    </contour>
  </outline>
</glyph>
<glyph name="tilde.case" format="1">
  <advance width="333"/>
  <outline>
    <contour>
      <point x="298" y="636" type="line"/>
      <point x="280" y="611" smooth="yes"/>
      <point x="267" y="593" smooth="yes"/>
      <point x="241" y="593" type="curve" smooth="yes"/>
      <point x="221" y="593"/>
      <point x="149" y="634"/>
      <point x="110" y="634" type="curve" name="hr01"/>
      <point x="54" y="616"/>
      <point x="22" y="579"/>
      <point x="8" y="545" type="curve"/>
      <point x="35" y="530" type="line"/>
      <point x="53" y="555" smooth="yes"/>
      <point x="66" y="573" smooth="yes"/>
      <point x="92" y="573" type="curve" smooth="yes"/>
      <point x="112" y="573"/>
      <point x="184" y="532"/>
      <point x="223" y="532" type="curve" name="hr02"/>
      <point x="279" y="550"/>
      <point x="311" y="587"/>
      <point x="325" y="621" type="curve"/>
    </contour>
  </outline>
</glyph>
